<svg width="18" height="18" viewBox="0 0 18 18" fill="none" xmlns="http://www.w3.org/2000/svg">
<path d="M5.33333 13.5833C5.59306 13.5833 5.81092 13.4953 5.98692 13.3193C6.16292 13.1433 6.25061 12.9258 6.25 12.6667C6.24939 12.4076 6.16139 12.19 5.986 12.014C5.81061 11.838 5.59306 11.75 5.33333 11.75C5.07361 11.75 4.85606 11.838 4.68067 12.014C4.50528 12.19 4.41728 12.4076 4.41667 12.6667C4.41606 12.9258 4.50406 13.1436 4.68067 13.3202C4.85728 13.4969 5.07483 13.5846 5.33333 13.5833ZM5.33333 9.91667C5.59306 9.91667 5.81092 9.82867 5.98692 9.65267C6.16292 9.47667 6.25061 9.25911 6.25 9C6.24939 8.74089 6.16139 8.52333 5.986 8.34733C5.81061 8.17133 5.59306 8.08333 5.33333 8.08333C5.07361 8.08333 4.85606 8.17133 4.68067 8.34733C4.50528 8.52333 4.41728 8.74089 4.41667 9C4.41606 9.25911 4.50406 9.47697 4.68067 9.65358C4.85728 9.83019 5.07483 9.91789 5.33333 9.91667ZM5.33333 6.25C5.59306 6.25 5.81092 6.162 5.98692 5.986C6.16292 5.81 6.25061 5.59244 6.25 5.33333C6.24939 5.07422 6.16139 4.85667 5.986 4.68067C5.81061 4.50467 5.59306 4.41667 5.33333 4.41667C5.07361 4.41667 4.85606 4.50467 4.68067 4.68067C4.50528 4.85667 4.41728 5.07422 4.41667 5.33333C4.41606 5.59244 4.50406 5.81031 4.68067 5.98692C4.85728 6.16353 5.07483 6.25122 5.33333 6.25ZM9 13.5833H12.6667C12.9264 13.5833 13.1442 13.4953 13.3202 13.3193C13.4963 13.1433 13.5839 12.9258 13.5833 12.6667C13.5827 12.4076 13.4947 12.19 13.3193 12.014C13.1439 11.838 12.9264 11.75 12.6667 11.75H9C8.74028 11.75 8.52272 11.838 8.34733 12.014C8.17194 12.19 8.08394 12.4076 8.08333 12.6667C8.08272 12.9258 8.17072 13.1436 8.34733 13.3202C8.52394 13.4969 8.7415 13.5846 9 13.5833ZM9 9.91667H12.6667C12.9264 9.91667 13.1442 9.82867 13.3202 9.65267C13.4963 9.47667 13.5839 9.25911 13.5833 9C13.5827 8.74089 13.4947 8.52333 13.3193 8.34733C13.1439 8.17133 12.9264 8.08333 12.6667 8.08333H9C8.74028 8.08333 8.52272 8.17133 8.34733 8.34733C8.17194 8.52333 8.08394 8.74089 8.08333 9C8.08272 9.25911 8.17072 9.47697 8.34733 9.65358C8.52394 9.83019 8.7415 9.91789 9 9.91667ZM9 6.25H12.6667C12.9264 6.25 13.1442 6.162 13.3202 5.986C13.4963 5.81 13.5839 5.59244 13.5833 5.33333C13.5827 5.07422 13.4947 4.85667 13.3193 4.68067C13.1439 4.50467 12.9264 4.41667 12.6667 4.41667H9C8.74028 4.41667 8.52272 4.50467 8.34733 4.68067C8.17194 4.85667 8.08394 5.07422 8.08333 5.33333C8.08272 5.59244 8.17072 5.81031 8.34733 5.98692C8.52394 6.16353 8.7415 6.25122 9 6.25ZM2.58333 17.25C2.07917 17.25 1.64772 17.0706 1.289 16.7119C0.930278 16.3532 0.750611 15.9214 0.75 15.4167V2.58333C0.75 2.07917 0.929667 1.64772 1.289 1.289C1.64833 0.930278 2.07978 0.750611 2.58333 0.75H15.4167C15.9208 0.75 16.3526 0.929667 16.7119 1.289C17.0713 1.64833 17.2506 2.07978 17.25 2.58333V15.4167C17.25 15.9208 17.0706 16.3526 16.7119 16.7119C16.3532 17.0713 15.9214 17.2506 15.4167 17.25H2.58333Z" fill="black"/>
</svg>
